<svg width="19" height="19" viewBox="0 0 19 19" fill="none" xmlns="http://www.w3.org/2000/svg">
<path d="M12.0175 9.49991L5.90979 15.6084C5.79368 15.7245 5.73615 15.8639 5.73721 16.0264C5.73826 16.189 5.79738 16.3286 5.91454 16.4452C6.03118 16.5618 6.17078 16.6202 6.33333 16.6202C6.49589 16.6202 6.63549 16.5618 6.75212 16.4452L12.8012 10.3992C12.9295 10.2715 13.0229 10.129 13.0815 9.97175C13.1406 9.81447 13.1702 9.65719 13.1702 9.49991C13.1702 9.34264 13.1406 9.18536 13.0815 9.02808C13.0224 8.8708 12.929 8.7283 12.8012 8.60058L6.75292 2.54908C6.63628 2.43244 6.49589 2.37491 6.33175 2.3765C6.16814 2.37808 6.02801 2.43719 5.91137 2.55383C5.79474 2.67047 5.73615 2.81007 5.73563 2.97262C5.7351 3.13518 5.79368 3.27451 5.91137 3.39062L12.0175 9.49991Z" fill="#2F75F6"/>
</svg>
